<svg width="686" height="605" viewBox="0 0 686 605" fill="none" xmlns="http://www.w3.org/2000/svg">
<path d="M662.441 477.329C662.441 453.486 655.749 430.123 643.127 409.897C630.506 389.671 612.461 373.395 591.047 362.923C569.633 352.45 545.71 348.2 522 350.658C498.291 353.116 475.747 362.181 456.935 376.824C440.923 358.291 420.262 344.363 397.079 336.473C373.897 328.582 349.031 327.015 325.042 331.933C301.052 336.85 278.807 348.075 260.596 364.45C242.385 380.826 228.867 401.761 221.434 425.099C208.996 414.04 194.059 406.168 177.908 402.16C161.756 398.153 144.872 398.129 128.709 402.092C112.547 406.056 97.588 413.886 85.1201 424.911C72.6523 435.936 63.0483 449.825 57.1342 465.384C51.22 480.943 49.1727 497.706 51.1683 514.232C53.164 530.757 59.1428 546.551 68.5906 560.254C78.0384 573.957 90.6725 585.159 105.406 592.897C120.14 600.636 136.532 604.679 153.174 604.678C154.771 604.678 156.357 604.637 157.937 604.564C159.567 604.635 161.205 604.678 162.853 604.678H548.526C576.276 604.677 603.032 594.342 623.581 575.687C644.131 557.033 657.001 531.395 659.686 503.768C661.52 495.074 662.444 486.214 662.441 477.329V477.329Z" fill="#5F6CAF"/>
<path d="M666.771 461.736C666.771 437.893 660.079 414.53 647.458 394.304C634.836 374.078 616.791 357.802 595.377 347.33C573.963 336.857 550.04 332.607 526.331 335.065C502.621 337.523 480.077 346.588 461.265 361.231C445.253 342.698 424.592 328.77 401.41 320.88C378.227 312.989 353.361 311.422 329.372 316.34C305.383 321.257 283.137 332.482 264.927 348.857C246.716 365.233 233.198 386.168 225.764 409.506C213.327 398.447 198.39 390.575 182.238 386.567C166.086 382.56 149.203 382.536 133.04 386.499C116.877 390.462 101.918 398.293 89.4505 409.318C76.9826 420.343 67.3786 434.232 61.4645 449.791C55.5503 465.35 53.503 482.113 55.4987 498.639C57.4943 515.164 63.4731 530.958 72.9209 544.661C82.3687 558.363 95.0028 569.566 109.737 577.304C124.47 585.043 140.863 589.086 157.504 589.085C159.101 589.085 160.688 589.043 162.267 588.971C163.897 589.042 165.535 589.085 167.183 589.085H552.856C580.607 589.084 607.363 578.749 627.912 560.094C648.461 541.44 661.332 515.802 664.016 488.175C665.851 479.481 666.774 470.621 666.771 461.736V461.736Z" stroke="#3F3D56" stroke-miterlimit="10"/>
<path d="M162.868 379.437C207.564 379.437 243.797 343.194 243.797 298.487C243.797 253.78 207.564 217.537 162.868 217.537C118.172 217.537 81.9391 253.78 81.9391 298.487C81.9391 343.194 118.172 379.437 162.868 379.437Z" fill="#FFBD69"/>
<path d="M163.133 121.985H163.133C152.178 121.985 143.297 130.868 143.297 141.826V182.142C143.297 193.099 152.178 201.982 163.133 201.982C174.088 201.982 182.968 193.099 182.968 182.142V141.826C182.968 130.868 174.088 121.985 163.133 121.985Z" fill="#FFBD69"/>
<path d="M308.557 237.568C318.044 232.089 321.294 219.955 315.817 210.465C310.34 200.976 298.208 197.724 288.721 203.203L253.815 223.361C244.328 228.84 241.077 240.974 246.555 250.464C252.032 259.953 264.163 263.205 273.651 257.726L308.557 237.568Z" fill="#FFBD69"/>
<path d="M9.91961 386.509L9.91963 386.509C15.3971 395.999 27.5283 399.25 37.0155 393.771L71.9214 373.613C81.4086 368.134 84.6592 356 79.1817 346.51C73.7043 337.021 61.573 333.769 52.0859 339.248L17.1799 359.406C7.69273 364.885 4.44217 377.019 9.91961 386.509Z" fill="#FFBD69"/>
<path d="M10.184 210.007L10.184 210.007C4.70658 219.497 7.95713 231.631 17.4443 237.11L52.3503 257.268C61.8375 262.747 73.9687 259.495 79.4462 250.006C84.9236 240.516 81.673 228.382 72.1858 222.903L37.2799 202.745C27.7927 197.266 15.6615 200.517 10.184 210.007Z" fill="#FFBD69"/>
<path d="M172.395 369.908C217.091 369.908 253.324 333.665 253.324 288.958C253.324 244.251 217.091 208.008 172.395 208.008C127.699 208.008 91.4658 244.251 91.4658 288.958C91.4658 333.665 127.699 369.908 172.395 369.908Z" stroke="#3F3D56" stroke-miterlimit="10"/>
<path d="M172.659 112.456H172.659C183.614 112.456 192.495 121.339 192.495 132.296V172.613C192.495 183.57 183.614 192.453 172.659 192.453H172.659C161.705 192.453 152.824 183.57 152.824 172.613V132.296C152.824 121.339 161.705 112.456 172.659 112.456Z" stroke="#3F3D56" stroke-miterlimit="10"/>
<path d="M325.344 200.936L325.344 200.936C330.821 210.426 327.57 222.56 318.083 228.039L283.177 248.197C273.69 253.676 261.559 250.424 256.081 240.935L256.081 240.935C250.604 231.445 253.855 219.311 263.342 213.832L298.248 193.674C307.735 188.195 319.866 191.446 325.344 200.936Z" stroke="#3F3D56" stroke-miterlimit="10"/>
<path d="M19.4462 376.98L19.4462 376.98C13.9688 367.49 17.2193 355.356 26.7065 349.877L61.6125 329.719C71.0997 324.24 83.2309 327.492 88.7083 336.981L88.7084 336.981C94.1858 346.471 90.9352 358.605 81.448 364.084L46.5421 384.242C37.0549 389.721 24.9237 386.47 19.4462 376.98Z" stroke="#3F3D56" stroke-miterlimit="10"/>
<path d="M19.7107 200.478L19.7108 200.478C25.1882 190.988 37.3194 187.737 46.8066 193.216L81.7126 213.374C91.1998 218.853 94.4503 230.987 88.9729 240.476L88.9729 240.477C83.4954 249.966 71.3642 253.218 61.877 247.739L26.9711 227.581C17.4839 222.102 14.2333 209.967 19.7107 200.478Z" stroke="#3F3D56" stroke-miterlimit="10"/>
<path d="M599.837 438.737L585.901 467.153C585.901 467.153 560.709 463.936 570.893 497.176C570.893 497.176 568.213 522.375 562.853 527.736C557.493 533.097 567.141 568.482 586.437 558.296C597.291 552.566 597.969 545.988 596.485 541.329C594.182 534.381 593.733 526.952 595.182 519.777C597.118 510.707 600.607 499.108 606.805 489.134C619.133 469.297 630.925 449.996 630.925 449.996L599.837 438.737Z" fill="#A0616A"/>
<path d="M564.997 263.957C564.997 263.957 534.445 256.451 524.261 261.812C514.077 267.174 484.061 267.71 484.061 267.71C484.061 267.71 458.869 308.456 464.765 329.365C470.661 350.275 495.317 363.142 495.317 363.142L578.397 363.678L591.797 308.992C591.797 308.992 585.365 271.463 580.005 269.318C574.645 267.174 564.997 263.957 564.997 263.957Z" fill="#413F5A"/>
<path d="M537.661 122.417C562.823 122.417 583.221 102.013 583.221 76.845C583.221 51.6765 562.823 31.2733 537.661 31.2733C512.499 31.2733 492.101 51.6765 492.101 76.845C492.101 102.013 512.499 122.417 537.661 122.417Z" fill="#2F2E41"/>
<path d="M509.253 115.983C509.253 115.983 514.613 138.501 506.573 141.181C498.533 143.862 491.565 154.585 491.565 154.585L503.357 174.422L543.557 184.608L555.885 172.813L564.997 147.615L555.885 141.181C555.885 141.181 547.309 143.862 546.773 135.284C546.516 128.846 546.695 122.397 547.309 115.983L509.253 115.983Z" fill="#A0616A"/>
<path opacity="0.1" d="M509.253 115.983C509.253 115.983 514.613 138.501 506.573 141.181C498.533 143.862 491.565 154.585 491.565 154.585L503.357 174.422L543.557 184.608L555.885 172.813L564.997 147.615L555.885 141.181C555.885 141.181 547.309 143.862 546.773 135.284C546.516 128.846 546.695 122.397 547.309 115.983L509.253 115.983Z" fill="black"/>
<path d="M529.889 130.727C547.946 130.727 562.585 116.085 562.585 98.0224C562.585 79.9603 547.946 65.318 529.889 65.318C511.831 65.318 497.193 79.9603 497.193 98.0224C497.193 116.085 511.831 130.727 529.889 130.727Z" fill="#A0616A"/>
<path d="M528.013 172.813L496.925 144.398C496.925 144.398 482.989 156.193 481.381 156.193C479.773 156.193 458.869 162.627 458.333 165.308C457.797 167.988 476.557 196.403 476.557 196.403C476.557 196.403 472.269 217.313 476.557 226.427C480.845 235.541 477.629 274.679 477.629 274.679C477.629 274.679 506.037 264.493 521.045 269.318C536.053 274.143 580.005 269.318 580.005 269.318C580.005 269.318 586.437 228.036 583.757 222.674C581.077 217.313 580.541 186.753 580.541 186.753L603.589 161.555C603.589 161.555 598.765 142.254 580.541 141.181C562.317 140.109 551.061 139.037 551.061 139.037L528.013 172.813Z" fill="#FFACB7"/>
<path d="M491.565 304.703C491.565 304.703 431.533 277.36 407.413 264.493C383.293 251.626 346.309 261.812 358.101 290.764C369.893 319.715 435.821 348.13 435.821 348.13C435.821 348.13 457.261 364.214 470.125 363.678C482.989 363.142 501.481 363.41 501.481 363.41L491.565 304.703Z" fill="#3F3D56"/>
<path d="M584.293 308.456C584.293 308.456 692.029 309.528 685.061 349.739C678.093 389.949 636.821 456.966 629.317 458.574C621.813 460.183 594.477 448.388 594.477 444.635C594.477 440.882 620.741 371.72 620.741 371.72L556.421 351.883L584.293 308.456Z" fill="#413F5A"/>
<path d="M604.661 188.361C604.661 188.361 611.093 250.017 607.877 259.668C604.661 269.318 593.405 295.589 578.933 308.456C564.461 321.323 544.093 386.196 532.837 355.1C521.581 324.004 551.061 306.848 551.061 306.848L580.611 265.261L580.889 197.582L604.661 188.361Z" fill="#A0616A"/>
<path d="M484.061 317.57C484.061 317.57 537.125 336.335 543.021 333.655C548.917 330.974 561.781 340.624 561.781 340.624C567.726 339.351 573.863 339.264 579.842 340.368C585.82 341.472 591.522 343.746 596.621 347.058C613.773 358.317 617.525 371.184 613.773 371.72C610.021 372.256 596.621 366.359 596.621 366.359C596.621 366.359 576.253 362.07 563.925 365.823C551.597 369.576 535.53 361.664 535.53 361.664L470.125 347.058L484.061 317.57Z" fill="#A0616A"/>
<path opacity="0.1" d="M484.061 317.57C484.061 317.57 537.125 336.335 543.021 333.655C548.917 330.974 561.781 340.624 561.781 340.624C567.726 339.351 573.863 339.264 579.842 340.368C585.82 341.472 591.522 343.746 596.621 347.058C613.773 358.317 617.525 371.184 613.773 371.72C610.021 372.256 596.621 366.359 596.621 366.359C596.621 366.359 576.253 362.07 563.925 365.823C551.597 369.576 535.53 361.664 535.53 361.664L470.125 347.058L484.061 317.57Z" fill="black"/>
<path d="M458.333 211.415C458.333 211.415 458.869 277.896 466.909 285.938C474.949 293.98 483.525 304.703 491.565 309.528C499.605 314.354 503.893 325.612 503.893 325.612C503.893 325.612 542.485 381.907 543.021 356.172C543.557 330.438 523.189 310.065 523.189 310.065L519.203 306.267C510.481 298.058 502.596 289.004 495.661 279.238C494.079 276.909 492.156 274.83 489.957 273.071C482.989 267.71 481.381 208.735 481.381 208.735L458.333 211.415Z" fill="#A0616A"/>
<path d="M592.333 155.121L603.589 161.555C603.589 161.555 607.877 189.97 610.021 193.723C612.165 197.476 583.757 207.126 579.469 204.446C575.181 201.765 573.037 175.494 573.037 175.494L592.333 155.121Z" fill="#2F2E41"/>
<path d="M465.301 164.771H458.333C458.333 164.771 450.829 172.813 451.365 189.97C451.901 207.126 444.933 217.849 449.221 219.457C453.509 221.066 474.897 212.552 474.655 214.933C474.413 217.313 485.669 213.024 485.669 213.024L478.165 184.608L465.301 164.771Z" fill="#2F2E41"/>
<path opacity="0.1" d="M411.434 274.68C411.434 274.68 444.13 288.619 453.242 290.764C462.354 292.908 491.804 318.003 491.804 318.003L471.701 348.537C471.701 348.537 451.098 345.986 439.842 343.841C428.586 341.697 361.586 297.197 372.842 289.691C384.098 282.185 411.434 274.68 411.434 274.68Z" fill="black"/>
<path d="M404.733 274.68C404.733 274.68 437.429 288.619 446.541 290.764C455.653 292.908 491.565 317.57 491.565 317.57L473.877 351.883C473.877 351.883 444.397 345.986 433.141 343.841C421.885 341.697 354.885 297.197 366.141 289.691C377.397 282.185 404.733 274.68 404.733 274.68Z" fill="#3F3D56"/>
<path d="M546.505 91.5887C571.667 91.5887 592.065 71.1856 592.065 46.0171C592.065 20.8486 571.667 0.445465 546.505 0.445465C521.343 0.445465 500.945 20.8486 500.945 46.0171C500.945 71.1856 521.343 91.5887 546.505 91.5887Z" fill="#2F2E41"/>
</svg>
